Coordinates
version=1
nRows=32
nColumns=22
inDegrees=yes

Units are S.I. units (second, meters, Newtons, ...)
If the header above contains a line with 'inDegrees', this indicates whether rotational values are in degrees (yes) or radians (no).

endheader
time	pelvis_tilt	pelvis_list	pelvis_rotation	pelvis_tx	pelvis_ty	pelvis_tz	hip_flexion_r	hip_adduction_r	hip_rotation_r	knee_angle_r	ankle_angle_r	subtalar_angle_r	hip_flexion_l	hip_adduction_l	hip_rotation_l	knee_angle_l	ankle_angle_l	subtalar_angle_l	lumbar_extension	lumbar_bending	lumbar_rotation
      1.95000000	      0.85470100	     -5.01385249	     61.10656435	      0.99400061	      0.97520849	      0.54480917	     30.78762812	      1.50440478	      3.47655122	    -26.19287881	     -0.62922200	     11.83205241	    -10.65459732	     -0.44052763	      1.00862729	    -31.74450856	     -2.30826490	      5.33382865	     -0.36795886	     -0.35609496	     -8.48640597
      1.96000000	      1.08248055	     -5.02844736	     61.53932463	      1.00087730	      0.97732525	      0.53527574	     30.13307212	      1.62996773	      3.03540048	    -26.60588310	      0.07503781	     11.59269784	     -9.37398324	     -1.08314945	     -0.16018348	    -34.72771389	     -3.91380627	      5.49532000	     -0.37858780	     -0.22737845	     -8.40450868
      1.97000000	      1.31598571	     -5.06800610	     62.00146513	      1.00758777	      0.97934847	      0.52599877	     29.47651005	      1.76313776	      2.53130891	    -26.94252845	      0.76313264	     11.38816099	     -7.94098345	     -1.80176290	     -1.25247917	    -37.85182742	     -5.24563481	      5.35723411	     -0.38531951	     -0.09785171	     -8.29817631
      1.98000000	      1.54591497	     -5.11291171	     62.47854813	      1.01413121	      0.98128737	      0.51695122	     28.80175748	      1.90281175	      2.04665581	    -27.20087511	      1.47090076	     11.19419690	     -6.40696119	     -2.54769036	     -2.19362836	    -41.03189845	     -6.33298750	      4.77252824	     -0.39936955	      0.01279052	     -8.15577254
      1.99000000	      1.82187569	     -5.15416139	     62.98305239	      1.02045839	      0.98320248	      0.50803272	     28.06233746	      2.07671039	      1.54370138	    -27.35571358	      2.12605957	     11.08080456	     -4.83707322	     -3.34339343	     -2.95946085	    -44.18946847	     -7.02434332	      4.14605411	     -0.44746849	      0.16722711	     -7.99043948
      2.00000000	      2.10686723	     -5.17542500	     63.49350013	      1.02656812	      0.98508255	      0.49923302	     27.27433486	      2.26106237	      1.07832132	    -27.43166130	      2.76335903	     10.97911000	     -3.25412667	     -4.11342230	     -3.52938748	    -47.25241585	     -7.32623812	      3.37285845	     -0.52326156	      0.31875484	     -7.79224955
      2.01000000	      2.39888719	     -5.16158091	     64.01674334	      1.03241150	      0.98694917	      0.49049738	     26.42774501	      2.44432578	      0.66301088	    -27.43973377	      3.38380218	     10.89366066	     -1.69063042	     -4.83324281	     -3.91867755	    -50.16409245	     -7.18917782	      2.56356814	     -0.63697539	      0.46875541	     -7.57155337
      2.02000000	      2.69962791	     -5.10793197	     64.54711254	      1.03795302	      0.98880824	      0.48180618	     25.53282486	      2.61906646	      0.25486188	    -27.40590709	      3.97832606	     10.83584588	     -0.16430282	     -5.48418173	     -4.14414013	    -52.88923750	     -6.61930592	      1.84460085	     -0.79579701	      0.62241200	     -7.29844981
      2.03000000	      2.98726144	     -5.00602048	     65.08844316	      1.04317668	      0.99066797	      0.47313709	     24.58767482	      2.76485130	     -0.11331868	    -27.32832332	      4.55234430	     10.79830913	      1.31555766	     -6.04101305	     -4.25039707	    -55.39291564	     -5.70913081	      1.17125801	     -0.99310764	      0.75636331	     -7.00644623
      2.04000000	      3.25527018	     -4.84948256	     65.64156307	      1.04805855	      0.99255438	      0.46447265	     23.58219641	      2.86915463	     -0.45544660	    -27.19448469	      5.08938156	     10.78302872	      2.73345578	     -6.47806094	     -4.24198832	    -57.64959892	     -4.54706975	      0.64983258	     -1.23271492	      0.86365333	     -6.69593296
      2.05000000	      3.49398702	     -4.67071970	     66.19627385	      1.05263265	      0.99439910	      0.45583713	     22.56847220	      2.93737786	     -0.79452829	    -27.03755014	      5.60888941	     10.77983102	      4.12780297	     -6.82841435	     -4.21404489	    -59.66443872	     -3.35591835	      0.08684492	     -1.47743843	      0.94957537	     -6.37294187
      2.06000000	      3.69629842	     -4.46121873	     66.75240545	      1.05690275	      0.99622703	      0.44721741	     21.53069775	      2.95784804	     -1.13387076	    -26.84171083	      6.11165761	     10.78912437	      5.47786346	     -7.07111256	     -4.16925138	    -61.41475790	     -2.19240048	     -0.44191593	     -1.73352067	      1.00142660	     -6.03309263
      2.07000000	      3.86145862	     -4.23014740	     67.30168383	      1.06088488	      0.99802037	      0.43862298	     20.47573148	      2.93418623	     -1.48034348	    -26.60356038	      6.59866374	     10.80795669	      6.78591478	     -7.20760587	     -4.12702598	    -62.89929902	     -1.10652049	     -0.90610024	     -1.99230584	      1.02239820	     -5.67411042
      2.08000000	      4.00151802	     -4.00628698	     67.84916257	      1.06462044	      0.99976098	      0.43002725	     19.40675540	      2.88896690	     -1.84702533	    -26.29017762	      7.06553388	     10.86169073	      8.06634203	     -7.27394474	     -4.11347480	    -64.10806993	     -0.15555573	     -1.43030425	     -2.22157306	      1.03452183	     -5.29828404
      2.09000000	      4.11585124	     -3.76906458	     68.40958428	      1.06808200	      1.00145139	      0.42148095	     18.32880068	      2.80245873	     -2.28350695	    -25.94465383	      7.47960040	     10.90642653	      9.30575871	     -7.25836707	     -4.10852088	    -65.05149244	      0.73363794	     -1.75335155	     -2.45850480	      1.02518505	     -4.93305883
      2.10000000	      4.21508037	     -3.54444870	     68.96166388	      1.07133723	      1.00305254	      0.41300064	     17.25674781	      2.71075170	     -2.73632314	    -25.55747436	      7.87534203	     10.98150773	     10.51663412	     -7.19759680	     -4.15003407	    -65.73057759	      1.53580371	     -2.10010672	     -2.67755886	      1.01451530	     -4.55892961
      2.11000000	      4.29472136	     -3.33419377	     69.50779206	      1.07440999	      1.00455619	      0.40459904	     16.19995113	      2.61005192	     -3.20809978	    -25.14061151	      8.24218410	     11.07668913	     11.69859338	     -7.09587670	     -4.23994711	    -66.14256474	      2.28115297	     -2.43321811	     -2.87765410	      0.99139060	     -4.17640477
      2.12000000	      4.35612947	     -3.14469108	     70.04459803	      1.07731194	      1.00594361	      0.39628605	     15.16997117	      2.50671819	     -3.68217149	    -24.70608926	      8.58325344	     11.19202889	     12.85609796	     -6.96435753	     -4.38547656	    -66.29298428	      2.98744719	     -2.75454042	     -3.05508844	      0.95939512	     -3.78236006
      2.13000000	      4.39669695	     -2.98237812	     70.57270899	      1.08008945	      1.00721380	      0.38805228	     14.16943969	      2.40424155	     -4.14542647	    -24.24869355	      8.90099915	     11.34448373	     13.98942552	     -6.82298404	     -4.61074705	    -66.17587519	      3.65189913	     -3.08276495	     -3.20147729	      0.91022103	     -3.39460919
      2.14000000	      4.40949090	     -2.85740123	     71.07972870	      1.08274131	      1.00832577	      0.37990100	     13.22508847	      2.29847116	     -4.58908786	    -23.79476553	      9.19846452	     11.48984898	     15.11171224	     -6.67610756	     -4.93236769	    -65.81067711	      4.29384732	     -3.34790914	     -3.30297560	      0.84492457	     -2.99317463
      2.15000000	      4.39146656	     -2.79245088	     71.55692760	      1.08532057	      1.00924633	      0.37187535	     12.35834706	      2.20817433	     -4.94569260	    -23.33564099	      9.47459369	     11.56500802	     16.24630872	     -6.53375465	     -5.34533845	    -65.21056333	      4.94366230	     -3.50634050	     -3.34306769	      0.75716358	     -2.56519378
      2.16000000	      4.37219716	     -2.71820732	     72.06315818	      1.08772119	      1.01008798	      0.36382840	     11.47918170	      2.10101658	     -5.38850149	    -22.87013690	      9.77229617	     11.82191547	     17.31083519	     -6.40048126	     -5.82951476	    -64.37519557	      5.50703354	     -3.77575346	     -3.39576093	      0.66609256	     -2.19811255
      2.17000000	      4.33185387	     -2.73132955	     72.52219585	      1.09009533	      1.01067860	      0.35589766	     10.70448092	      2.03167871	     -5.73459749	    -22.39876335	     10.03833049	     11.87701133	     18.41202927	     -6.30879758	     -6.42404912	    -63.34506258	      6.10031091	     -3.86124309	     -3.35858200	      0.57201723	     -1.78640575
      2.18000000	      4.27873211	     -2.75525932	     72.97177143	      1.09236202	      1.01114014	      0.34795586	      9.95388164	      1.95221797	     -6.12204119	    -21.93815835	     10.34440279	     11.97150219	     19.45205682	     -6.23578716	     -7.12141707	    -62.10020297	      6.64002384	     -3.92729030	     -3.30782627	      0.46718277	     -1.40853266
      2.19000000	      4.19310817	     -2.77168058	     73.39153290	      1.09452527	      1.01149835	      0.34003747	      9.20565963	      1.84279734	     -6.50249554	    -21.46562791	     10.69745085	     12.15449773	     20.41694656	     -6.14768251	     -7.91191450	    -60.65358136	      7.07777428	     -3.93877836	     -3.27029495	      0.31898485	     -0.99812717
      2.20000000	      4.13454156	     -2.84015342	     73.79582308	      1.09660582	      1.01165956	      0.33214262	      8.50116832	      1.78616967	     -6.89384587	    -20.97551670	     11.02969701	     12.23092235	     21.36410861	     -6.13382316	     -8.77589392	    -59.04771315	      7.47550071	     -3.88525672	     -3.19363425	      0.21982906	     -0.61696538
      2.21000000	      4.06966783	     -2.90719074	     74.17585174	      1.09860610	      1.01170093	      0.32422170	      7.79558911	      1.72849079	     -7.27656366	    -20.48007312	     11.38418891	     12.31599322	     22.22987752	     -6.13671521	     -9.71796108	    -57.26784748	      7.78842772	     -3.76936490	     -3.11940560	      0.10764313	     -0.22458642
      2.22000000	      4.02068506	     -2.97406437	     74.52870796	      1.10049690	      1.01163086	      0.31628543	      7.07773729	      1.69159813	     -7.65026416	    -19.96203853	     11.72795140	     12.41848683	     23.01585440	     -6.16617395	    -10.70668255	    -55.33383862	      7.97725444	     -3.58921742	     -3.06135248	      0.01707052	      0.17517513
      2.23000000	      4.00279725	     -3.03458598	     74.86914472	      1.10226845	      1.01144965	      0.30830372	      6.33273012	      1.68852298	     -8.01290686	    -19.42107531	     12.04985011	     12.53401793	     23.71604067	     -6.22327818	    -11.70444431	    -53.26080711	      8.06097823	     -3.35049094	     -3.02418779	     -0.04109844	      0.58228537
      2.24000000	      4.00945293	     -3.11277993	     75.18785429	      1.10393874	      1.01108876	      0.30028467	      5.59530079	      1.72163163	     -8.33950583	    -18.87170073	     12.34917221	     12.59951329	     24.35942140	     -6.30862252	    -12.71553598	    -51.06583815	      8.11265782	     -3.13173387	     -2.97898738	     -0.06371568	      0.97181267
      2.25000000	      4.06726031	     -3.15182309	     75.51001254	      1.10547355	      1.01064413	      0.29219471	      4.79076146	      1.79767525	     -8.68303781	    -18.30055217	     12.61065880	     12.67272218	     24.89231080	     -6.41776881	    -13.69522901	    -48.76466559	      8.02047787	     -2.84426973	     -2.99595490	     -0.04052795	      1.34487237
      2.26000000	      4.16857252	     -3.18515586	     75.84080278	      1.10686600	      1.01002825	      0.28402568	      3.95732096	      1.92068757	     -9.02026896	    -17.71263280	     12.85261081	     12.71212429	     25.35734131	     -6.53997275	    -14.61664192	    -46.37240603	      7.90289707	     -2.54899002	     -3.03068864	      0.02936942	      1.70154080
